<svg xmlns="http://www.w3.org/2000/svg" viewBox="0 0 654 846" fill="none">
  <g transform="translate(0,846) scale(0.1,-0.1)" fill="#d4a088">
    <path d="M3237 7329 c-16 -9 -18 -32 -17 -282 0 -150 0 -280 0 -289 0 -11 -8
-18 -19 -18 -34 0 -42 -24 -41 -117 2 -125 2 -123 -19 -123 -31 0 -43 -25 -41
-87 2 -88 1 -93 -18 -93 -30 0 -42 -21 -42 -72 0 -40 -3 -48 -18 -48 -30 0
-42 -21 -42 -72 0 -40 -3 -48 -18 -48 -30 0 -42 -21 -42 -72 0 -37 -4 -48 -15
-48 -9 0 -24 -13 -33 -30 -9 -16 -23 -30 -30 -30 -7 0 -21 -13 -30 -30 -9 -16
-24 -30 -33 -30 -27 0 -39 -23 -39 -72 0 -37 -4 -48 -15 -48 -9 0 -24 -13 -33
-30 -9 -16 -23 -30 -30 -30 -7 0 -21 -13 -30 -30 -9 -16 -23 -30 -30 -30 -7 0
-21 -13 -30 -30 -9 -16 -23 -30 -30 -30 -7 0 -21 -13 -30 -30 -9 -16 -23 -30
-30 -30 -7 0 -21 -13 -30 -30 -9 -16 -23 -30 -30 -30 -7 0 -21 -13 -30 -30 -9
-16 -23 -30 -30 -30 -7 0 -21 -13 -30 -30 -9 -16 -23 -30 -30 -30 -7 0 -21
-13 -30 -30 -9 -16 -23 -30 -30 -30 -7 0 -21 -13 -30 -30 -9 -16 -23 -30 -30
-30 -7 0 -21 -13 -30 -30 -9 -16 -23 -30 -30 -30 -7 0 -21 -13 -30 -30 -9 -16
-23 -30 -30 -30 -7 0 -21 -13 -30 -30 -9 -16 -23 -30 -30 -30 -7 0 -21 -13
-30 -30 -9 -16 -23 -30 -30 -30 -7 0 -21 -13 -30 -30 -9 -16 -23 -30 -30 -30
-7 0 -21 -13 -30 -30 -9 -16 -23 -30 -30 -30 -7 0 -21 -13 -30 -30 -9 -16 -24
-30 -32 -30 -28 0 -40 -23 -40 -72 0 -37 -4 -48 -15 -48 -9 0 -24 -13 -33 -30
-9 -16 -23 -30 -30 -30 -7 0 -21 -13 -30 -30 -9 -16 -24 -30 -32 -30 -28 0
-40 -23 -40 -72 0 -37 -4 -48 -15 -48 -9 0 -24 -13 -33 -30 -9 -16 -24 -30
-32 -30 -28 0 -40 -23 -40 -72 0 -40 -3 -48 -18 -48 -30 0 -42 -21 -42 -72 0
-40 -3 -48 -19 -48 -31 0 -43 -25 -41 -87 2 -88 1 -93 -18 -93 -30 0 -42 -21
-42 -72 0 -40 -3 -48 -19 -48 -36 0 -42 -23 -41 -147 1 -160 2 -153 -18 -153
-40 0 -42 -14 -42 -290 0 -276 2 -290 42 -290 20 0 20 1 18 -123 -1 -93 7
-117 41 -117 21 0 21 2 19 -123 -1 -93 7 -117 41 -117 16 0 19 -8 19 -48 0
-51 12 -72 42 -72 15 0 18 -8 18 -48 0 -51 12 -72 42 -72 15 0 18 -8 18 -48 0
-49 12 -72 39 -72 9 0 24 -14 33 -30 9 -17 24 -30 33 -30 11 0 15 -11 15 -48
0 -49 12 -72 39 -72 9 0 24 -14 33 -30 9 -17 23 -30 30 -30 7 0 21 -14 30 -30
9 -17 24 -30 33 -30 11 0 15 -11 15 -48 0 -49 12 -72 39 -72 9 0 24 -14 33
-30 9 -17 23 -30 30 -30 7 0 21 -14 30 -30 9 -17 23 -30 30 -30 7 0 21 -14 30
-30 9 -17 23 -30 30 -30 7 0 21 -14 30 -30 9 -17 23 -30 30 -30 7 0 21 -14 30
-30 9 -17 23 -30 30 -30 7 0 21 -14 30 -30 9 -17 23 -30 31 -30 8 0 20 -14 27
-30 11 -27 17 -30 59 -30 41 0 48 -4 63 -30 9 -17 23 -30 30 -30 7 0 21 -14
30 -30 9 -17 23 -30 30 -30 7 0 21 -14 30 -30 15 -27 22 -30 67 -30 65 0 81
16 81 84 0 53 -12 76 -39 76 -9 0 -24 14 -33 30 -9 17 -24 30 -33 30 -16 0
-17 6 -15 93 2 62 -10 87 -41 87 -21 0 -21 4 -19 93 2 62 -10 87 -41 87 -11 0
-19 7 -19 15 0 8 0 182 0 385 0 204 0 377 0 385 0 8 8 15 19 15 31 0 43 25 41
87 -2 88 -1 93 18 93 30 0 42 21 42 72 0 40 3 48 18 48 30 0 42 21 42 72 0 37
4 48 15 48 9 0 24 13 33 30 9 16 24 30 33 30 27 0 39 23 39 72 0 37 4 48 15
48 9 0 24 13 33 30 9 16 23 30 30 30 7 0 21 13 30 30 9 16 23 30 30 30 7 0 21
13 30 30 9 16 23 30 30 30 7 0 21 13 30 30 9 16 23 30 30 30 7 0 21 13 30 30
9 16 23 30 30 30 7 0 21 13 30 30 9 16 23 30 30 30 7 0 21 13 30 30 9 16 23
30 30 30 7 0 21 13 30 30 9 16 23 30 30 30 7 0 21 13 30 30 9 16 23 30 30 30
7 0 21 13 30 30 9 16 24 30 33 30 27 0 39 23 39 72 0 37 4 48 15 48 9 0 24 13
33 30 9 16 23 30 30 30 7 0 21 13 30 30 9 16 24 30 33 30 27 0 39 23 39 72 0
37 4 48 15 48 9 0 24 13 33 30 9 16 24 30 33 30 27 0 39 23 39 72 0 40 3 48
18 48 30 0 42 21 42 72 0 40 3 48 19 48 30 0 40 22 43 100 l3 75 31 3 c26 3
36 -3 54 -27 12 -17 28 -31 36 -31 10 0 14 -13 14 -48 0 -49 12 -72 40 -72 8
0 23 -14 32 -30 9 -17 24 -30 33 -30 11 0 15 -11 15 -48 0 -51 12 -72 42 -72
15 0 18 -8 18 -48 0 -51 12 -72 42 -72 15 0 18 -8 18 -48 0 -51 12 -72 42 -72
15 0 18 -8 18 -48 0 -51 12 -72 42 -72 19 0 20 -5 18 -93 -2 -62 10 -87 41
-87 21 0 21 -4 19 -93 -2 -62 10 -87 41 -87 21 0 20 8 19 -153 -1 -124 5 -147
41 -147 11 0 19 -7 19 -15 0 -8 0 -114 0 -235 0 -121 0 -227 0 -235 0 -8 -8
-15 -19 -15 -36 0 -42 -23 -41 -147 1 -161 2 -153 -19 -153 -34 0 -42 -24 -41
-117 2 -124 2 -123 -18 -123 -30 0 -42 -21 -42 -72 0 -40 -3 -48 -18 -48 -30
0 -42 -21 -42 -72 0 -40 -3 -48 -19 -48 -31 0 -43 -25 -41 -87 2 -88 1 -93
-18 -93 -30 0 -42 -21 -42 -72 0 -37 -4 -48 -15 -48 -9 0 -24 -13 -33 -30 -9
-16 -24 -30 -33 -30 -27 0 -39 -23 -39 -72 0 -37 -4 -48 -15 -48 -9 0 -24 -13
-33 -30 -9 -16 -23 -30 -30 -30 -7 0 -21 -13 -30 -30 -9 -16 -24 -30 -33 -30
-27 0 -39 -23 -39 -76 0 -68 16 -84 81 -84 45 0 52 3 67 30 9 16 23 30 30 30
7 0 21 13 30 30 9 16 23 30 30 30 7 0 21 13 30 30 15 26 22 30 63 30 42 0 48
3 59 30 7 17 19 30 27 30 8 0 22 13 31 30 9 16 23 30 30 30 7 0 21 13 30 30 9
16 23 30 30 30 7 0 21 13 30 30 15 26 22 30 63 30 42 0 48 3 59 30 7 17 20 30
29 30 29 0 41 22 41 72 0 37 4 48 15 48 9 0 24 13 33 30 9 16 23 30 30 30 7 0
21 13 30 30 9 16 23 30 30 30 7 0 21 13 30 30 9 16 23 30 30 30 7 0 21 13 30
30 9 16 23 30 30 30 7 0 21 13 30 30 9 16 23 30 30 30 7 0 21 13 30 30 9 16
24 30 33 30 27 0 39 23 39 72 0 37 4 48 15 48 9 0 24 13 33 30 9 16 24 30 33
30 27 0 39 23 39 72 0 37 4 48 15 48 9 0 24 13 33 30 9 16 24 30 33 30 27 0
39 23 39 72 0 40 3 48 18 48 30 0 42 21 42 72 0 40 3 48 19 48 31 0 43 25 41
87 -2 88 -1 93 18 93 30 0 42 21 42 72 0 40 3 48 19 48 36 0 42 23 41 147 -1
160 -2 153 18 153 42 0 42 4 42 500 0 496 0 500 -42 500 -20 0 -20 -1 -18 123
1 93 -7 117 -41 117 -21 0 -21 -2 -19 123 1 93 -7 117 -41 117 -16 0 -19 8
-19 48 0 51 -12 72 -42 72 -15 0 -18 8 -18 48 0 51 -12 72 -42 72 -15 0 -18 8
-18 48 0 51 -12 72 -42 72 -15 0 -18 8 -18 48 0 51 -12 72 -42 72 -15 0 -18 8
-18 48 0 51 -12 72 -42 72 -15 0 -18 8 -18 48 0 26 -5 53 -12 60 -17 17 -123
16 -137 -2 -8 -9 -12 -55 -11 -133 1 -160 2 -153 -18 -153 -28 0 -42 -21 -42
-63 0 -28 -7 -46 -22 -61 -13 -12 -28 -31 -34 -41 -18 -33 -33 -8 -27 45 6 50
6 50 -26 56 -19 4 -31 13 -31 23 -1 9 0 123 0 255 1 247 -2 266 -41 266 -21 0
-21 -2 -19 123 1 93 -7 117 -41 117 -21 0 -21 4 -19 93 2 62 -10 87 -41 87
-16 0 -19 8 -19 48 0 51 -12 72 -42 72 -15 0 -18 8 -18 48 0 49 -12 72 -39 72
-9 0 -24 14 -33 30 -9 17 -24 30 -33 30 -11 0 -15 11 -15 48 0 49 -12 72 -39
72 -9 0 -24 14 -33 30 -9 17 -24 30 -33 30 -11 0 -15 11 -15 48 0 49 -12 72
-40 72 -8 0 -23 14 -32 30 -9 17 -23 30 -30 30 -7 0 -21 14 -30 30 -9 17 -23
30 -30 30 -7 0 -21 14 -30 30 -9 17 -23 30 -30 30 -7 0 -21 14 -30 30 -9 17
-23 30 -30 30 -7 0 -21 14 -30 30 -9 17 -23 30 -30 30 -7 0 -21 14 -30 30 -9
17 -23 30 -30 30 -7 0 -21 14 -30 30 -9 17 -23 30 -30 30 -7 0 -21 14 -30 30
-9 17 -23 30 -30 30 -7 0 -21 14 -30 30 -9 17 -23 30 -30 30 -7 0 -21 14 -30
30 -9 17 -23 30 -30 30 -7 0 -21 14 -30 30 -9 17 -23 30 -30 30 -7 0 -21 14
-30 30 -15 27 -22 30 -65 30 -26 0 -56 -5 -66 -11z m1367 -2428 c3 -5 -1 -14
-8 -20 -16 -13 -32 2 -21 19 8 12 22 13 29 1z"/>
  </g>
</svg>